<?xml version="1.0" encoding="UTF-8" standalone="no"?>
<svg
   xmlns:dc="http://purl.org/dc/elements/1.1/"
   xmlns:cc="http://creativecommons.org/ns#"
   xmlns:rdf="http://www.w3.org/1999/02/22-rdf-syntax-ns#"
   xmlns:svg="http://www.w3.org/2000/svg"
   xmlns="http://www.w3.org/2000/svg"
   xmlns:xlink="http://www.w3.org/1999/xlink"
   xmlns:sodipodi="http://sodipodi.sourceforge.net/DTD/sodipodi-0.dtd"
   xmlns:inkscape="http://www.inkscape.org/namespaces/inkscape"
   xml:space="preserve"
   version="1.1"
   viewBox="0 0 383.37 258.84"
   id="svg3406"
   inkscape:version="0.91 r13725"
   sodipodi:docname="JuliaChess.svg"><metadata
     id="metadata3436"><rdf:RDF><cc:Work
         rdf:about=""><dc:format>image/svg+xml</dc:format><dc:type
           rdf:resource="http://purl.org/dc/dcmitype/StillImage" /><dc:title /></cc:Work></rdf:RDF></metadata><defs
     id="defs3434" /><sodipodi:namedview
     pagecolor="#ffffff"
     bordercolor="#666666"
     borderopacity="1"
     objecttolerance="10"
     gridtolerance="10"
     guidetolerance="10"
     inkscape:pageopacity="0"
     inkscape:pageshadow="2"
     inkscape:window-width="1210"
     inkscape:window-height="755"
     id="namedview3432"
     showgrid="false"
     inkscape:zoom="1.8363461"
     inkscape:cx="191.685"
     inkscape:cy="129.42"
     inkscape:window-x="67"
     inkscape:window-y="23"
     inkscape:window-maximized="0"
     inkscape:current-layer="svg3406" /><g
     id="g3421"
     transform="translate(-239.06168,-2.1782386)"><circle
       transform="scale(1,-1)"
       style="fill:#d5635c;stroke:#cb3c33;stroke-width:3.83789062;stroke-linecap:butt;stroke-miterlimit:4"
       id="circle3426"
       r="20"
       cy="-71.877487"
       cx="263.91376" /><circle
       transform="scale(1,-1)"
       style="fill:#60ad51;stroke:#389826;stroke-width:3.83789062;stroke-linecap:butt;stroke-miterlimit:4"
       id="circle3428"
       r="20"
       cy="-26.877491"
       cx="290.16376" /><circle
       transform="scale(1,-1)"
       style="fill:#aa79c1;stroke:#9558b2;stroke-width:3.83789062;stroke-linecap:butt;stroke-miterlimit:4"
       id="circle3430"
       r="20"
       cy="-71.877487"
       cx="316.41376" /><g
       transform="translate(1.0909916,-0.15585594)"
       id="g3553"><path
         inkscape:connector-curvature="0"
         d="m 310.86838,61.907389 -2.93072,0 0,3.78329 2.50443,2.131431 0,7.939581 -2.50443,2.557717 0,2.078146 -1.27886,0 0,2.078145 17.63759,0 0,-2.078145 -1.27885,0 0,-2.078146 -2.50444,-2.557717 0,-7.939581 2.50444,-2.131431 0,-3.78329 -2.93072,0 0,1.705145 -2.50444,0 0,-1.705145 -4.20957,0 0,1.705145 -2.50443,0 0,-1.705145 z"
         style="fill:#ffffff;stroke:#000000;stroke-width:0.85257244;stroke-linecap:round;stroke-linejoin:round;stroke-miterlimit:4"
         id="path3536" /><path
         inkscape:connector-curvature="0"
         d="m 307.93766,65.690679 15.07988,0"
         style="stroke:#000000;stroke-width:0.85257244"
         id="path3538" /><path
         inkscape:connector-curvature="0"
         d="m 310.44209,67.82211 10.07101,0"
         style="stroke:#000000;stroke-width:0.85257244"
         id="path3540" /><path
         inkscape:connector-curvature="0"
         d="m 310.44209,75.761691 10.07101,0"
         style="stroke:#000000;stroke-width:0.85257244"
         id="path3542" /><path
         inkscape:connector-curvature="0"
         d="m 307.93766,78.319408 15.07988,0"
         style="stroke:#000000;stroke-width:0.85257244"
         id="path3544" /><path
         inkscape:connector-curvature="0"
         d="m 307.93766,80.397554 15.07988,0"
         style="stroke:#000000;stroke-width:0.85257244"
         id="path3546" /></g><g
       transform="translate(27.084722,-43.245272)"
       id="g3561"><path
         inkscape:connector-curvature="0"
         style="fill:none;stroke:#000000;stroke-width:1.20000005;stroke-linecap:butt;stroke-linejoin:miter;stroke-miterlimit:4;stroke-dasharray:none"
         d="m 263.08542,63.821407 0,-5"
         stroke-miterlimit="4"
         id="path3498" /><path
         inkscape:connector-curvature="0"
         style="fill:none;stroke:#000000;stroke-width:1;stroke-linecap:butt;stroke-linejoin:miter;stroke-miterlimit:4;stroke-dasharray:none"
         d="m 260.08542,61.361407 6,0"
         stroke-miterlimit="4"
         id="path3500" /><path
         inkscape:connector-curvature="0"
         style="fill:#000000;stroke:#000000;stroke-width:1;stroke-linecap:butt;stroke-linejoin:miter;stroke-miterlimit:4;stroke-dasharray:none"
         d="m 263.08542,70.821407 c 0,0 2.51,-3 2,-5 -0.6,-2.17 -1,-2 -2,-2 -1,0 -1.4,-0.17 -2,2 -0.5,2 2,5 2,5 z"
         stroke-miterlimit="4"
         id="path3502" /><path
         inkscape:connector-curvature="0"
         style="fill:#000000;stroke:#000000;stroke-width:1;stroke-linecap:round;stroke-linejoin:round;stroke-miterlimit:4;stroke-dasharray:none"
         d="m 270.58542,78.821407 0,-4 c 0,0 3.01,-2.59 3,-6 0,-4.97 -7.1,-5.32 -10.5,2 l 0,2 0,-2 c -3.41,-7.32 -10.5,-6.97 -10.5,-2 -0.007,3.41 3,6 3,6 l 0,4 c 2,1 4.5,1.5 7.5,1.5 3,0 5.5,-0.5 7.5,-1.5 z"
         stroke-miterlimit="4"
         id="path3504" /><path
         inkscape:connector-curvature="0"
         style="fill:none;stroke:#ffffff"
         id="path3786"
         d="m 255.58542,78.821407 c 2,-1 4.53,-1.5 7.5,-1.5 2.97,0 5.5,0.5 7.5,1.5" /><use
         style="stroke:#ffffff"
         xlink:href="#path3786"
         transform="translate(1.7615932e-6,-1.9999998)"
         height="26"
         width="26"
         y="0"
         x="0"
         id="use3507" /><use
         style="stroke:#ffffff"
         xlink:href="#path3786"
         transform="translate(1.7615932e-6,-3.9999998)"
         height="26"
         width="26"
         y="0"
         x="0"
         id="use3509" /><path
         inkscape:connector-curvature="0"
         style="fill:none;stroke:#ffffff;stroke-width:1;stroke-linecap:round;stroke-linejoin:round;stroke-miterlimit:4;stroke-dasharray:none"
         d="m 269.58542,74.821407 c 0,0 3.01,-2.59 3,-6 0,-4.0336 -6.7028,-3.0221 -9.5,3 l 0,1 0,-1 c -2.816,-6.0439 -9.5,-7.0886 -9.5,-3 -0.007,3.41 3,6 3,6"
         stroke-miterlimit="4"
         id="path3511" /></g><text
       sodipodi:linespacing="125%"
       id="text3571"
       y="78.816879"
       x="251.70734"
       style="font-style:normal;font-weight:normal;font-size:20px;line-height:125%;font-family:sans-serif;letter-spacing:0px;word-spacing:0px;fill:#000000;fill-opacity:1;stroke:none;stroke-width:1px;stroke-linecap:butt;stroke-linejoin:miter;stroke-opacity:1"
       xml:space="preserve"><tspan
         y="78.816879"
         x="251.70734"
         id="tspan3573"
         sodipodi:role="line">e4</tspan></text>
</g></svg>